<?xml version="1.0" encoding="utf-8"?>
<!-- Generator: Adobe Illustrator 18.1.1, SVG Export Plug-In . SVG Version: 6.00 Build 0)  -->
<svg version="1.1" id="Layer_1" xmlns="http://www.w3.org/2000/svg" xmlns:xlink="http://www.w3.org/1999/xlink" x="0px" y="0px"
	 viewBox="0 0 40 80" enable-background="new 0 0 40 80" xml:space="preserve">
<g>
	<path fill="#55AECB" d="M40,32.5c0,4.1-3.4,7.5-7.5,7.5h-25C3.4,40,0,36.6,0,32.5v-25C0,3.4,3.4,0,7.5,0h25C36.6,0,40,3.4,40,7.5
		V32.5z M30.2,13.4c1.1-0.7,2-1.8,2.4-3c-1.1,0.6-2.2,1.1-3.5,1.3c-1-1.1-2.4-1.7-4-1.7c-3,0-5.5,2.4-5.5,5.5c0,0.4,0,0.9,0.1,1.2
		c-4.6-0.2-8.6-2.4-11.3-5.7c-0.5,0.8-0.8,1.8-0.8,2.8c0,1.9,0.9,3.6,2.4,4.6c-0.9,0-1.8-0.3-2.6-0.7c0,0,0,0,0,0.1
		c0,2.7,2,4.9,4.5,5.4c-0.5,0.1-0.8,0.2-1.3,0.2c-0.3,0-0.7-0.1-1-0.1c0.7,2.2,2.7,3.8,5.1,3.8c-1.9,1.5-4.2,2.3-6.8,2.3
		c-0.4,0-0.9,0-1.3-0.1c2.4,1.5,5.3,2.4,8.4,2.4c10,0,15.6-8.3,15.6-15.6c0-0.2,0-0.5,0-0.7c1.1-0.8,2-1.7,2.7-2.8
		C32.3,13,31.3,13.3,30.2,13.4z"/>
</g>
<g>
	<path fill="#378499" d="M40,72.5c0,4.1-3.4,7.5-7.5,7.5h-25C3.4,80,0,76.6,0,72.5v-25C0,43.4,3.4,40,7.5,40h25
		c4.1,0,7.5,3.4,7.5,7.5V72.5z M30.2,53.4c1.1-0.7,2-1.8,2.4-3c-1.1,0.6-2.2,1.1-3.5,1.3c-1-1.1-2.4-1.7-4-1.7c-3,0-5.5,2.4-5.5,5.5
		c0,0.4,0,0.9,0.1,1.2c-4.6-0.2-8.6-2.4-11.3-5.7c-0.5,0.8-0.8,1.8-0.8,2.8c0,1.9,0.9,3.6,2.4,4.6c-0.9,0-1.8-0.3-2.6-0.7
		c0,0,0,0,0,0.1c0,2.7,2,4.9,4.5,5.4c-0.5,0.1-0.8,0.2-1.3,0.2c-0.3,0-0.7-0.1-1-0.1c0.7,2.2,2.7,3.8,5.1,3.8
		c-1.9,1.5-4.2,2.3-6.8,2.3c-0.4,0-0.9,0-1.3-0.1c2.4,1.5,5.3,2.4,8.4,2.4c10,0,15.6-8.3,15.6-15.6c0-0.2,0-0.5,0-0.7
		c1.1-0.8,2-1.7,2.7-2.8C32.3,53,31.3,53.3,30.2,53.4z"/>
</g>
</svg>
