<?xml version="1.0" encoding="utf-8"?>
<!-- Generator: Adobe Illustrator 18.1.1, SVG Export Plug-In . SVG Version: 6.00 Build 0)  -->
<svg version="1.1" id="Layer_1" xmlns="http://www.w3.org/2000/svg" xmlns:xlink="http://www.w3.org/1999/xlink" x="0px" y="0px"
	 viewBox="0 0 40 80" enable-background="new 0 0 40 80" xml:space="preserve">
<g>
	<path fill="#3B5896" d="M40,7.5v25c0,4.1-3.4,7.5-7.5,7.5h-4.9V24.5h5.2l0.8-6h-6v-3.9c0-1.7,0.5-2.9,3-2.9l3.2,0V6.3
		C33.2,6.2,31.3,6,29.1,6c-4.6,0-7.8,2.8-7.8,8v4.5h-5.2v6h5.2V40H7.5C3.4,40,0,36.6,0,32.5v-25C0,3.4,3.4,0,7.5,0h25
		C36.6,0,40,3.4,40,7.5z"/>
</g>
<g>
	<path fill="#718DB5" d="M40,47.5v25c0,4.1-3.4,7.5-7.5,7.5h-4.9V64.5h5.2l0.8-6h-6v-3.9c0-1.7,0.5-2.9,3-2.9l3.2,0v-5.4
		c-0.5-0.1-2.4-0.2-4.6-0.2c-4.6,0-7.8,2.8-7.8,8v4.5h-5.2v6h5.2V80H7.5C3.4,80,0,76.6,0,72.5v-25C0,43.4,3.4,40,7.5,40h25
		C36.6,40,40,43.4,40,47.5z"/>
</g>
</svg>
